{"title":"The Limit - Trickiest Tunnel (Extension of the Jubilee Line)","uid":15690034,"size":521579559,"categoryP":"video","categoryS":"hd___tv_shows","magnet":"?xt=urn:btih:433f00277c75b89d8bf40d0c16144e77c6e84dcc&amp;dn=The+Limit+-+Trickiest+Tunnel+%28Extension+of+the+Jubilee+Line%29&amp;tr=udp%3A%2F%2Ftracker.leechers-paradise.org%3A6969&amp;tr=udp%3A%2F%2Fzer0day.ch%3A1337&amp;tr=udp%3A%2F%2Fopen.demonii.com%3A1337&amp;tr=udp%3A%2F%2Ftracker.coppersurfer.tk%3A6969&amp;tr=udp%3A%2F%2Fexodus.desync.com%3A6969","seeders":3,"leechers":1,"uploader":"RoaElson","files":4,"time":1472393588,"description":"The Limit - Trickiest Tunnel (Extension of the Jubilee Line)\r\n\r\nHugh Doherty has spent a lifetime building tunnels, from the Clyde River Tunnel to the Hong Kong Mass Transit System. But now he is facing his biggest challenge yet - to build a new tube line under the heart of London, in record time.\r\n\r\nTo speed up the job he is using a spray-on, rapid setting concrete lining, but as another tunnel using the same method collapses, the work grinds to a halt. When his two trusted tunnelling machines then break down, it seems his quest may be doomed.\r\n\r\nNarrated by Robbie Coltrane.\r\n\r\nFirst shown: BBC, 28 Nov 1995\r\nDuration: 29 minutes\r\n\r\nMedia info:-\r\n\r\nGeneral\r\nFormat : MPEG-4\r\nFormat profile : Base Media\r\nCodec ID : isom (isom/iso2/avc1/mp41)\r\nFile size : 497 MiB\r\nDuration : 29mn 12s\r\nOverall bit rate mode : Variable\r\nOverall bit rate : 2 377 Kbps\r\n\r\nVideo\r\nID : 1\r\nFormat : AVC\r\nFormat/Info : Advanced Video Codec\r\nFormat profile :   \r\nFormat settings, CABAC : Yes\r\nFormat settings, ReFrames : 2 frames\r\nCodec ID : avc1\r\nCodec ID/Info : Advanced Video Coding\r\nDuration : 29mn 12s\r\nBit rate mode : Variable\r\nBit rate : 2 278 Kbps\r\nMaximum bit rate : 3 500 Kbps\r\nWidth : 1 280 pixels\r\nHeight : 720 pixels\r\nDisplay aspect ratio : 16:9\r\nFrame rate mode : Constant\r\nFrame rate : 25.000 fps\r\nColor space : YUV\r\nChroma subsampling : 4:2:0\r\nBit depth : 8 bits\r\nScan type : Progressive\r\nBits/(Pixel*Frame) : 0.099\r\nStream size : 476 MiB (96%)\r\n\r\nAudio\r\nID : 2\r\nFormat : AAC\r\nFormat/Info : Advanced Audio Codec\r\nFormat profile : LC\r\nCodec ID : 40\r\nDuration : 29mn 12s\r\nBit rate mode : Constant\r\nBit rate : 93.5 Kbps\r\nChannel(s) : 2 channels\r\nChannel positions : Front: L R\r\nSampling rate : 48.0 KHz\r\nFrame rate : 46.875 fps (1024 spf)\r\nCompression mode : Lossy\r\nStream size : 19.5 MiB (4%)","torrent":{"xt":"urn:btih:433f00277c75b89d8bf40d0c16144e77c6e84dcc","amp;dn":"The+Limit+-+Trickiest+Tunnel+%28Extension+of+the+Jubilee+Line%29","amp;tr":["udp%3A%2F%2Ftracker.leechers-paradise.org%3A6969","udp%3A%2F%2Fzer0day.ch%3A1337","udp%3A%2F%2Fopen.demonii.com%3A1337","udp%3A%2F%2Ftracker.coppersurfer.tk%3A6969","udp%3A%2F%2Fexodus.desync.com%3A6969"],"infoHash":"433f00277c75b89d8bf40d0c16144e77c6e84dcc","infoHashBuffer":{"type":"Buffer","data":[67,63,0,39,124,117,184,157,139,244,13,12,22,20,78,119,198,232,77,204]},"announce":[],"urlList":[]}}